<svg width="236" height="42" viewBox="0 0 236 42" fill="none" xmlns="http://www.w3.org/2000/svg">
<path d="M103.775 15.1874C104.854 15.1874 105.8 15.3949 106.613 15.8098C107.443 16.2248 108.091 16.8555 108.555 17.7021C109.02 18.5486 109.253 19.6192 109.253 20.9139V27.3127C109.253 27.9727 108.718 28.5078 108.058 28.5078C107.397 28.5078 106.862 27.9727 106.862 27.3127V21.1878C106.862 19.9097 106.547 18.947 105.916 18.2996C105.302 17.6523 104.431 17.3286 103.302 17.3286C102.455 17.3286 101.717 17.4946 101.086 17.8266C100.455 18.1585 99.9657 18.6482 99.6171 19.2955C99.2852 19.9429 99.1192 20.7479 99.1192 21.7106V27.3127C99.1192 27.9727 98.5841 28.5078 97.9241 28.5078C97.264 28.5078 96.729 27.9727 96.729 27.3127V16.144C96.729 15.6844 97.1015 15.3119 97.5611 15.3119H98.1293C98.621 15.3119 99.0196 15.7104 99.0196 16.2021V17.4255C99.4089 16.9514 100.069 16.2151 100.638 15.9094C101.534 15.4281 102.58 15.1874 103.775 15.1874Z" fill="white"/>
<path d="M118.456 28.6572C117.129 28.6572 116.099 28.3003 115.369 27.5865C114.639 26.8728 114.274 25.852 114.274 24.5241V13.6188C114.274 12.9588 114.809 12.4237 115.469 12.4237C116.129 12.4237 116.664 12.9588 116.664 13.6188V24.4245C116.664 25.1383 116.838 25.686 117.187 26.0678C117.552 26.4495 118.066 26.6404 118.73 26.6404C119.079 26.6404 119.4 26.5953 119.694 26.5052C120.188 26.3537 120.804 26.4922 121.01 26.966C121.209 27.424 121.093 27.9761 120.645 28.1956C120.452 28.2899 120.245 28.3691 120.025 28.4331C119.527 28.5825 119.004 28.6572 118.456 28.6572ZM113.016 17.2788C112.473 17.2788 112.033 16.8385 112.033 16.2953C112.033 15.7522 112.473 15.3119 113.016 15.3119H119.465C120.008 15.3119 120.448 15.7522 120.448 16.2953C120.448 16.8385 120.008 17.2788 119.465 17.2788H113.016Z" fill="white"/>
<path d="M140.735 28.5078C140.075 28.5078 139.54 27.9727 139.54 27.3127V16.4572C139.54 15.8246 140.053 15.3119 140.685 15.3119H141.437C141.654 15.3119 141.83 15.4878 141.83 15.7048V17.5239C141.83 17.6856 141.83 17.6754 141.83 17.5239C142.197 16.6271 142.596 16.385 143.449 15.9094C144.059 15.5694 144.768 15.3494 145.576 15.2496C146.158 15.1777 146.636 15.6628 146.636 16.2493V17.2027C146.636 17.3599 146.494 17.478 146.337 17.478C146.254 17.478 146.171 17.478 146.088 17.478C144.81 17.478 143.797 17.8598 143.05 18.6233C142.303 19.3868 141.93 20.4906 141.93 21.9347V27.3127C141.93 27.9727 141.395 28.5078 140.735 28.5078Z" fill="white"/>
<path d="M158.182 28.5078C157.557 28.5078 157.049 28.0006 157.049 27.3749V26.7767L156.978 25.4468C156.973 25.3628 156.968 25.2789 156.964 25.195C156.958 25.0833 156.947 24.8724 156.925 24.4743V22.6319V20.9139C156.925 19.9014 156.626 18.6482 156.029 18.1004C155.448 17.5361 154.568 17.2539 153.389 17.2539C152.609 17.2539 151.846 17.3867 151.099 17.6523C150.785 17.757 150.491 17.8778 150.218 18.0148C149.657 18.2962 148.924 18.164 148.619 17.6157C148.383 17.1908 148.484 16.6505 148.899 16.3987C149.421 16.0825 150.005 15.8281 150.651 15.6355C151.613 15.3368 152.618 15.1874 153.663 15.1874C155.473 15.1874 156.867 15.6272 157.846 16.507C158.826 17.3867 159.315 18.7312 159.315 20.5404V27.3749C159.315 28.0006 158.808 28.5078 158.182 28.5078ZM152.717 28.6572C151.738 28.6572 150.875 28.4912 150.128 28.1592C149.398 27.8272 148.833 27.3708 148.435 26.7898C148.036 26.1923 147.837 25.52 147.837 24.7731C147.837 24.0593 148.003 23.412 148.335 22.831C148.684 22.2501 149.24 21.7853 150.003 21.4368C150.783 21.0882 151.829 20.9139 153.141 20.9139H156.925V22.6319H153.24C152.045 22.6319 151.24 22.831 150.825 23.2294C150.41 23.6278 150.203 24.1091 150.203 24.6735C150.203 25.3208 150.46 25.8437 150.974 26.2421C151.489 26.6238 152.203 26.8147 153.116 26.8147C154.012 26.8147 154.792 26.6155 155.456 26.2172C156.137 25.8188 156.626 25.2378 156.925 24.4743L157.049 26.7767C157.049 26.7767 156.527 27.5202 155.73 27.9849C154.933 28.4331 153.929 28.6572 152.717 28.6572Z" fill="white"/>
<path d="M169.739 28.6572C168.394 28.6572 167.191 28.3667 166.129 27.7857C165.083 27.2048 164.261 26.408 163.664 25.3955C163.066 24.383 162.767 23.2211 162.767 21.9098C162.767 20.5985 163.066 19.4366 163.664 18.4241C164.261 17.4116 165.083 16.6232 166.129 16.0588C167.191 15.4779 168.394 15.1874 169.739 15.1874C170.934 15.1874 171.996 15.4281 172.926 15.9094C173.551 16.2166 174.082 16.6253 174.519 17.1355C174.905 17.5858 174.729 18.2502 174.231 18.5712C173.714 18.904 173.038 18.7418 172.579 18.3326C172.313 18.0952 172.022 17.9016 171.706 17.7519C171.092 17.4365 170.428 17.2788 169.714 17.2788C168.851 17.2788 168.079 17.4697 167.398 17.8515C166.718 18.2332 166.178 18.7727 165.78 19.4698C165.382 20.1504 165.183 20.9637 165.183 21.9098C165.183 22.8559 165.382 23.6776 165.78 24.3747C166.178 25.0719 166.718 25.6113 167.398 25.9931C168.079 26.3749 168.851 26.5657 169.714 26.5657C170.428 26.5657 171.092 26.4163 171.706 26.1176C172.03 25.9557 172.327 25.75 172.598 25.5006C173.044 25.0915 173.707 24.9305 174.219 25.2528C174.722 25.5698 174.897 26.2367 174.509 26.6873C174.074 27.1925 173.546 27.6085 172.926 27.9351C171.996 28.4165 170.934 28.6572 169.739 28.6572Z" fill="white"/>
<path d="M183.162 28.6572C181.834 28.6572 180.805 28.3003 180.075 27.5865C179.344 26.8728 178.979 25.852 178.979 24.5241V17.2788V15.3119V13.6188C178.979 12.9588 179.514 12.4237 180.174 12.4237C180.834 12.4237 181.369 12.9588 181.369 13.6188V15.3119V17.2788V24.4245C181.369 25.1383 181.544 25.686 181.892 26.0678C182.257 26.4495 182.772 26.6404 183.436 26.6404C183.719 26.6404 183.984 26.6106 184.232 26.551C184.818 26.4095 185.544 26.5719 185.785 27.1254C185.943 27.4886 185.851 27.9235 185.505 28.1153C185.269 28.2458 185.011 28.3518 184.731 28.4331C184.233 28.5825 183.71 28.6572 183.162 28.6572ZM177.722 17.2788C177.179 17.2788 176.738 16.8385 176.738 16.2953C176.738 15.7522 177.179 15.3119 177.722 15.3119H178.979H181.369H184.17C184.713 15.3119 185.154 15.7522 185.154 16.2953C185.154 16.8385 184.713 17.2788 184.17 17.2788H181.369H178.979H177.722Z" fill="white"/>
<path d="M190.384 28.5078C189.724 28.5078 189.189 27.9727 189.189 27.3127V16.507C189.189 15.8469 189.724 15.3119 190.384 15.3119C191.044 15.3119 191.579 15.8469 191.579 16.507V27.3127C191.579 27.9727 191.044 28.5078 190.384 28.5078ZM190.384 12.7723C189.919 12.7723 189.529 12.6229 189.214 12.3241C188.915 12.0253 188.766 11.6602 188.766 11.2286C188.766 10.7804 188.915 10.407 189.214 10.1082C189.529 9.80942 189.919 9.66003 190.384 9.66003C190.849 9.66003 191.23 9.80942 191.529 10.1082C191.845 10.3904 192.002 10.7472 192.002 11.1788C192.002 11.627 191.853 12.0087 191.554 12.3241C191.255 12.6229 190.865 12.7723 190.384 12.7723Z" fill="white"/>
<path d="M201.073 28.5078C200.331 28.5078 199.66 28.0691 199.363 27.3902L194.774 16.9058C194.445 16.1541 194.996 15.3119 195.816 15.3119C196.271 15.3119 196.682 15.5829 196.862 16.0009L201.103 25.8839L205.447 15.9541C205.618 15.564 206.004 15.3119 206.429 15.3119C207.203 15.3119 207.721 16.1054 207.411 16.8136L202.782 27.3902C202.485 28.0691 201.814 28.5078 201.073 28.5078Z" fill="white"/>
<path d="M216.06 28.6572C214.649 28.6572 213.404 28.3667 212.325 27.7857C211.263 27.2048 210.433 26.408 209.835 25.3955C209.254 24.383 208.964 23.2211 208.964 21.9098C208.964 20.5985 209.246 19.4366 209.81 18.4241C210.391 17.4116 211.18 16.6232 212.176 16.0588C213.188 15.4779 214.325 15.1874 215.587 15.1874C216.865 15.1874 217.993 15.4696 218.973 16.0339C219.952 16.5983 220.716 17.395 221.263 18.4241C221.828 19.4366 222.11 20.6234 222.11 21.9845C222.11 22.4001 221.751 22.7066 221.336 22.7066L211.341 22.676L211.336 21.0306L219.823 20.9886C219.765 20.38 219.598 19.824 219.321 19.3204C218.956 18.6565 218.45 18.1419 217.803 17.7768C217.172 17.395 216.433 17.2041 215.587 17.2041C214.757 17.2041 214.018 17.395 213.371 17.7768C212.723 18.1419 212.217 18.6648 211.852 19.3453C211.575 19.8496 211.336 21.0306 211.336 21.0306L211.341 22.676C211.341 22.676 211.603 23.8765 211.902 24.3996C212.317 25.0802 212.889 25.6113 213.62 25.9931C214.35 26.3749 215.188 26.5657 216.134 26.5657C216.915 26.5657 217.62 26.4329 218.251 26.1674C218.541 26.0483 218.815 25.9025 219.072 25.7299C219.582 25.3875 220.297 25.3856 220.696 25.8526C221.023 26.2344 221.029 26.8058 220.647 27.1319C220.175 27.5348 219.633 27.8606 219.023 28.1094C218.143 28.4746 217.155 28.6572 216.06 28.6572Z" fill="white"/>
<path d="M229.462 28.6572C228.367 28.6572 227.321 28.5078 226.325 28.209C225.739 28.0301 225.227 27.8274 224.789 27.6009C224.317 27.3565 224.191 26.7693 224.439 26.2988C224.741 25.7239 225.479 25.541 226.072 25.8052C226.388 25.9456 226.729 26.0746 227.097 26.1923C227.927 26.4578 228.774 26.5906 229.637 26.5906C230.749 26.5906 231.546 26.4329 232.027 26.1176C232.525 25.8022 232.774 25.3623 232.774 24.798C232.774 24.383 232.624 24.0593 232.326 23.827C232.027 23.5946 231.629 23.4203 231.131 23.3041C230.649 23.1879 230.11 23.0883 229.512 23.0053C228.915 22.9057 228.317 22.7895 227.72 22.6568C227.122 22.5074 226.574 22.3082 226.076 22.0592C225.578 21.7936 225.18 21.4368 224.881 20.9886C224.582 20.5238 224.433 19.9097 224.433 19.1461C224.433 18.3494 224.657 17.6523 225.105 17.0547C225.553 16.4572 226.184 16.0007 226.997 15.6853C227.827 15.3534 228.807 15.1874 229.935 15.1874C230.799 15.1874 231.67 15.2953 232.55 15.511C233.046 15.6213 233.491 15.7595 233.885 15.9257C234.394 16.1398 234.541 16.752 234.28 17.2373C233.979 17.7939 233.268 17.9593 232.683 17.7185C232.411 17.6065 232.134 17.518 231.853 17.4531C231.205 17.3037 230.558 17.229 229.911 17.229C228.865 17.229 228.085 17.4033 227.57 17.7519C227.056 18.0838 226.798 18.5154 226.798 19.0466C226.798 19.4947 226.948 19.8433 227.246 20.0923C227.562 20.3247 227.96 20.5072 228.442 20.64C228.94 20.7728 229.487 20.889 230.085 20.9886C230.682 21.0716 231.28 21.1878 231.877 21.3372C232.475 21.47 233.015 21.6608 233.496 21.9098C233.994 22.1588 234.392 22.5074 234.691 22.9555C235.006 23.4037 235.164 24.0012 235.164 24.7482C235.164 25.5449 234.932 26.2338 234.467 26.8147C234.002 27.3957 233.346 27.8521 232.5 28.1841C231.653 28.4995 230.641 28.6572 229.462 28.6572Z" fill="white"/>
<path d="M91.9476 28.5076C91.2876 28.5076 90.7525 27.9725 90.7525 27.3125V16.5068C90.7525 15.8467 91.2876 15.3117 91.9476 15.3117C92.6076 15.3117 93.1427 15.8467 93.1427 16.5068V27.3125C93.1427 27.9725 92.6076 28.5076 91.9476 28.5076ZM91.9476 12.7721C91.4828 12.7721 91.0928 12.6227 90.7774 12.3239C90.4786 12.0251 90.3292 11.66 90.3292 11.2284C90.3292 10.7802 90.4786 10.4068 90.7774 10.108C91.0928 9.80921 91.4828 9.65983 91.9476 9.65983C92.4124 9.65983 92.7941 9.80921 93.0929 10.108C93.4083 10.3902 93.566 10.747 93.566 11.1786C93.566 11.6268 93.4166 12.0085 93.1178 12.3239C92.819 12.6227 92.429 12.7721 91.9476 12.7721Z" fill="white"/>
<path d="M70.4335 21.5109C70.4588 22.2829 69.8074 22.9093 69.035 22.9093H59.4945C59.8697 24.2965 60.6486 25.2806 61.8648 25.8608C63.1419 26.4668 64.1804 26.5641 65.3892 25.8115C65.8735 25.51 66.5124 25.5173 66.9144 25.9221C67.3426 26.3534 67.3376 27.0622 66.8461 27.4196C65.8084 28.174 64.6364 28.6054 63.2493 28.457C60.6649 28.1802 58.7636 26.8571 57.7094 24.4797C56.69 22.1775 56.9754 19.9355 58.4231 17.8816C60.0359 15.5988 63.0393 14.6198 65.7439 15.4391C67.0599 15.8406 68.2182 16.6407 69.0584 17.7286C69.8987 18.8165 70.3792 20.1383 70.4335 21.5109ZM68.0561 20.7446C67.8318 18.7976 65.5777 17.1407 63.4685 17.3473C61.5172 17.5377 59.4996 19.2994 59.6006 20.7446H68.0561Z" fill="#E05A34"/>
<path d="M53.393 18.8773C54.1351 18.0798 55.0271 17.611 56.0495 17.3976C56.6316 17.2761 57.1025 16.7994 57.1019 16.2047C57.1013 15.5902 56.5987 15.0829 55.9894 15.1624C51.6209 15.7325 50.2038 19.6391 50.0512 21.6679L50.0368 27.0515C50.0352 27.656 50.5248 28.1469 51.1292 28.1469C51.7314 28.1469 52.22 27.6597 52.2217 27.0575L52.237 21.6191C52.2451 20.5525 52.6794 19.6467 53.393 18.8773Z" fill="#E05A34"/>
<path d="M75.0638 25.2C75.7044 25.5137 76.2096 26.0895 76.2096 26.8028C76.2096 27.5522 75.6605 28.2238 74.9267 28.0714C73.1223 27.6966 71.3879 25.982 71.2595 24.1622C71.2595 17.9638 71.2595 12.0919 71.2595 6.0939C71.2595 5.36824 71.8477 4.77992 72.5734 4.77992C73.2991 4.77992 73.8873 5.36818 73.8873 6.09385V22.9923C73.8873 24.222 74.2817 24.817 75.0638 25.2Z" fill="#E05A34"/>
<path d="M83.1349 28.4758C85.7444 27.9923 87.5203 25.8593 87.5382 23.1496V16.2434C87.5382 15.6223 87.0346 15.1187 86.4134 15.1187C85.7929 15.1187 85.2896 15.6212 85.2887 16.2417L85.2778 23.3286C85.2516 25.0356 83.8593 26.3805 82.2375 26.348C80.538 26.3145 79.2559 24.977 79.2559 23.2291L79.2558 16.232C79.2558 15.6171 78.7574 15.1187 78.1425 15.1187C77.5272 15.1187 77.0286 15.6179 77.0292 16.2332L77.0374 23.5881C77.0983 26.6484 80.1208 29.0347 83.1349 28.4758Z" fill="#E05A34"/>
<path fill-rule="evenodd" clip-rule="evenodd" d="M6.16116 10.2445C0.94584 13.3677 0.945838 21.1758 6.16116 24.2991L11.0596 27.2326C12.096 27.8532 13.4211 27.4849 14.0194 26.4099C14.6177 25.3349 14.2627 23.9604 13.2263 23.3398L10.7072 21.8312C7.32345 19.8048 7.32345 14.7388 10.7072 12.7124L18.3128 8.15774C19.3491 7.53711 19.7042 6.16256 19.1058 5.0876C18.5075 4.01265 17.1823 3.64433 16.1459 4.26496L6.16116 10.2445Z" fill="url(#paint0_linear_600_313)"/>
<path fill-rule="evenodd" clip-rule="evenodd" d="M31.3134 19.5615C33.0176 20.5821 33.0176 23.1335 31.3134 24.1541L3.25573 40.9568C2.21939 41.5774 0.894207 41.209 0.295872 40.1341C-0.302464 39.0591 0.052615 37.6846 1.08897 37.064L22.6463 24.1541C24.3505 23.1335 24.3505 20.5821 22.6463 19.5615L21.4345 18.8358C20.3982 18.2152 20.0431 16.8407 20.6414 15.7657C21.2398 14.6908 22.565 14.3224 23.6014 14.9431L31.3134 19.5615Z" fill="white"/>
<path d="M42.9769 8.88154C42.9769 13.5711 39.3118 17.3726 34.7907 17.3726C30.2696 17.3726 26.6045 13.5711 26.6045 8.88154C26.6045 4.19201 30.2696 0.390381 34.7907 0.390381C39.3118 0.390381 42.9769 4.19201 42.9769 8.88154Z" fill="white"/>
<path d="M178.986 15.2559H181.361V17.2901H178.986V15.2559Z" fill="white"/>
<path d="M114.264 15.3093H116.664V17.2793H114.264V15.3093Z" fill="white"/>
<path d="M130.631 28.6572C129.22 28.6572 127.975 28.3667 126.896 27.7857C125.834 27.2048 125.004 26.408 124.406 25.3955C123.825 24.383 123.535 23.2211 123.535 21.9098C123.535 20.5985 123.817 19.4366 124.381 18.4241C124.962 17.4116 125.751 16.6232 126.747 16.0588C127.759 15.4779 128.896 15.1874 130.158 15.1874C131.436 15.1874 132.564 15.4696 133.544 16.0339C134.523 16.5983 135.287 17.395 135.834 18.4241C136.399 19.4366 136.681 20.6234 136.681 21.9845C136.681 22.4001 136.322 22.7066 135.907 22.7066L125.912 22.676L125.907 21.0306L134.394 20.9886C134.336 20.38 134.169 19.824 133.892 19.3204C133.527 18.6565 133.021 18.1419 132.373 17.7768C131.743 17.395 131.004 17.2041 130.158 17.2041C129.328 17.2041 128.589 17.395 127.942 17.7768C127.294 18.1419 126.788 18.6648 126.423 19.3453C126.145 19.8496 125.907 21.0306 125.907 21.0306L125.912 22.676C125.912 22.676 126.174 23.8765 126.473 24.3996C126.888 25.0802 127.46 25.6113 128.191 25.9931C128.921 26.3749 129.759 26.5657 130.705 26.5657C131.485 26.5657 132.191 26.4329 132.822 26.1674C133.112 26.0483 133.386 25.9025 133.642 25.7299C134.153 25.3875 134.868 25.3856 135.267 25.8526C135.594 26.2344 135.599 26.8058 135.217 27.1319C134.745 27.5348 134.204 27.8606 133.593 28.1094C132.714 28.4746 131.726 28.6572 130.631 28.6572Z" fill="white"/>
<defs>
<linearGradient id="paint0_linear_600_313" x1="117.585" y1="0.390377" x2="117.585" y2="41.2583" gradientUnits="userSpaceOnUse">
<stop stop-color="#CD2C31"/>
<stop offset="1" stop-color="#FFA53A"/>
</linearGradient>
</defs>
</svg>
